# xmcd
#
# Track frame offsets:
#	150
#	11690
#	26505
#	46077
#	60955
#	71440
#	83047
#	93965
#	105272
#	121495
#	134020
#	143685
#	157092
#	170447
#	185195
#	195622
#
# Disc length: 2766 seconds
#
# Revision: 1
# Processed by: cddbd v1.5.1PL0 Copyright (c) Steve Scherf et al.
# Submitted via: audiograbber 1.82.02
#
DISCID=d10acc10
DTITLE=Various Artist - Goin Country Disc One
DYEAR=2003
DGENRE=Country
TTITLE0=Willie Nelson - On The Road Again
TTITLE1=Waylon Jennings - Luckenback, Texas
TTITLE2=Kenny Rogers - Coward Of The County
TTITLE3=Alabama - Love In The First Degree
TTITLE4=Barbara Mandrell - Sleeping Single In A Double Bed
TTITLE5=Moe Bandy and Joe Stamply - Just Good Ol' Boys
TTITLE6=Billy Crash Craddock - Rub It In
TTITLE7=Donna Fargo - The Happiest Girl In The Whole USA
TTITLE8=Mickey Gilley - Stand By Me
TTITLE9=Gary Stewart - She's Actin' Single
TTITLE10=Mel Tillis - I Ain't Never
TTITLE11=Dottie West - A Lesson In Leavin'
TTITLE12=Tompall Glaser - Lovin' Her Was Easier (Than Anything I'll Ever Do Aga
TTITLE12=in)
TTITLE13=Roseanne Cash - Seven Year Ache
TTITLE14=Jerry Reed - When You're Hot, You're Hot
TTITLE15=Tammy Wynette - Stand By Your Man
EXTD=
EXTT0=
EXTT1=
EXTT2=
EXTT3=
EXTT4=
EXTT5=
EXTT6=
EXTT7=
EXTT8=
EXTT9=
EXTT10=
EXTT11=
EXTT12=
EXTT13=
EXTT14=
EXTT15=
PLAYORDER=
